<svg width="350" height="350" viewBox="0 0 350 350" fill="none" xmlns="http://www.w3.org/2000/svg">
<g clip-path="url(#clip0)">
<path d="M204.514 82.9562H202.675V30.4117C202.675 26.4179 201.92 22.4632 200.453 18.7735C198.986 15.0837 196.836 11.7312 194.126 8.9072C191.415 6.08324 188.197 3.8432 184.656 2.31498C181.114 0.786759 177.318 0.000294804 173.485 0.000488317H66.6365C62.8033 0.000423813 59.0076 0.787001 55.4662 2.31531C51.9248 3.84362 48.7069 6.08372 45.9965 8.90772C43.286 11.7317 41.1359 15.0843 39.6691 18.774C38.2022 22.4638 37.4472 26.4184 37.4473 30.4122V318.675C37.4473 326.74 40.5225 334.475 45.9965 340.179C51.4704 345.882 58.8947 349.086 66.636 349.086H173.485C181.227 349.086 188.651 345.882 194.125 340.179C199.599 334.475 202.674 326.74 202.674 318.675V120.358H204.513L204.514 82.9562Z" fill="#FF9D47"/>
<path d="M196.723 28.3743V320.71C196.722 326.825 194.39 332.69 190.24 337.015C186.09 341.339 180.462 343.77 174.593 343.772H65.5503C59.6786 343.773 54.0471 341.344 49.8942 337.019C45.7414 332.694 43.4075 326.828 43.4057 320.71V28.3743C43.4075 22.257 45.7413 16.3908 49.8939 12.0661C54.0466 7.74142 59.6779 5.31233 65.5494 5.31311H78.7768C78.1273 6.97721 77.8801 8.78206 78.0569 10.569C78.2337 12.356 78.8291 14.0703 79.7908 15.5614C80.7524 17.0524 82.0509 18.2746 83.5721 19.1203C85.0932 19.9661 86.7905 20.4096 88.5147 20.4119H150.682C152.406 20.4096 154.103 19.9661 155.624 19.1203C157.145 18.2746 158.444 17.0524 159.405 15.5614C160.367 14.0703 160.963 12.356 161.139 10.569C161.316 8.78206 161.069 6.97721 160.419 5.31311H174.588C180.458 5.31415 186.086 7.74354 190.237 12.0672C194.388 16.3908 196.72 22.2548 196.723 28.3699V28.3743Z" fill="white"/>
<path d="M121.234 145.327C108.819 145.332 96.9103 140.198 88.128 131.056C79.3457 121.913 74.4086 109.51 74.4029 96.5756V96.5324C74.4029 96.4302 74.4029 96.3227 74.4086 96.2205C74.55 69.5005 95.5584 47.7414 121.234 47.7414C127.383 47.741 133.473 49.0027 139.155 51.4544C144.837 53.9061 150 57.4998 154.349 62.0303C158.697 66.5608 162.147 71.9394 164.501 77.859C166.855 83.7786 168.067 90.1232 168.067 96.5307C168.067 102.938 166.856 109.283 164.503 115.203C162.15 121.123 158.701 126.502 154.352 131.033C150.004 135.564 144.842 139.158 139.16 141.61C133.478 144.063 127.389 145.325 121.239 145.325H121.234V145.327ZM121.234 48.768C109.13 48.7961 97.526 53.7995 88.943 62.6909C80.36 71.5823 75.4913 83.6433 75.3948 96.2534C75.3896 96.3625 75.3896 96.4499 75.3896 96.5329C75.3885 105.981 78.0766 115.218 83.114 123.075C88.1515 130.931 95.3119 137.055 103.69 140.672C112.068 144.288 121.287 145.235 130.182 143.392C139.076 141.55 147.246 137.001 153.659 130.32C160.072 123.64 164.44 115.128 166.209 105.861C167.979 96.5941 167.071 86.9887 163.601 78.2594C160.131 69.5301 154.254 62.0689 146.714 56.8194C139.174 51.57 130.309 48.768 121.241 48.768H121.234Z" fill="#E6E6E6"/>
<path d="M100.752 96.1185C106.304 96.1185 110.804 91.4297 110.804 85.6457C110.804 79.8617 106.304 75.1728 100.752 75.1728C95.2007 75.1728 90.7003 79.8617 90.7003 85.6457C90.7003 91.4297 95.2007 96.1185 100.752 96.1185Z" fill="#3F3D56"/>
<path d="M132.273 117.917H82.9613C82.8995 117.918 82.8378 117.912 82.7769 117.901L106.1 75.8146C106.242 75.5524 106.448 75.3343 106.698 75.1825C106.948 75.0308 107.232 74.9508 107.521 74.9508C107.81 74.9508 108.094 75.0308 108.343 75.1825C108.593 75.3343 108.8 75.5524 108.942 75.8146L124.593 104.057L125.343 105.408L132.273 117.917Z" fill="#FF9D47"/>
<path d="M159.727 117.917H117.078L125.342 105.41L125.937 104.509L136.706 88.2094C136.896 87.96 137.135 87.7551 137.407 87.6082C137.678 87.4613 137.976 87.3755 138.281 87.3565C138.587 87.3375 138.892 87.3857 139.179 87.4979C139.465 87.6102 139.725 87.784 139.943 88.008C139.999 88.0716 140.05 88.1389 140.098 88.2094L159.727 117.917Z" fill="#FF9D47"/>
<path d="M169.66 196.626H72.7628C72.2871 196.626 71.831 196.429 71.4946 196.078C71.1582 195.728 70.969 195.253 70.9685 194.757V169.715C70.9691 169.219 71.1584 168.744 71.4947 168.394C71.8311 168.043 72.2871 167.846 72.7628 167.845H169.66C170.135 167.846 170.591 168.043 170.928 168.394C171.264 168.744 171.453 169.219 171.454 169.715V194.757C171.453 195.253 171.264 195.728 170.928 196.079C170.591 196.429 170.135 196.626 169.66 196.627V196.626ZM72.7628 168.593C72.4773 168.593 72.2035 168.711 72.0017 168.922C71.7998 169.132 71.6863 169.417 71.686 169.715V194.757C71.6863 195.055 71.7998 195.34 72.0017 195.55C72.2035 195.761 72.4773 195.879 72.7628 195.879H169.66C169.945 195.879 170.219 195.761 170.421 195.55C170.623 195.34 170.736 195.055 170.736 194.757V169.715C170.736 169.417 170.623 169.132 170.421 168.922C170.219 168.711 169.945 168.593 169.66 168.593H72.7628Z" fill="#E6E6E6"/>
<path d="M85.3232 190.088C89.4853 190.088 92.8595 186.572 92.8595 182.236C92.8595 177.899 89.4853 174.384 85.3232 174.384C81.161 174.384 77.7868 177.899 77.7868 182.236C77.7868 186.572 81.161 190.088 85.3232 190.088Z" fill="#FF9D47"/>
<path d="M102.729 177.001C102.396 177.001 102.076 177.139 101.841 177.384C101.605 177.63 101.473 177.962 101.473 178.31C101.473 178.657 101.605 178.99 101.841 179.235C102.076 179.48 102.396 179.618 102.729 179.618H161.943C162.11 179.625 162.277 179.597 162.434 179.535C162.59 179.474 162.734 179.381 162.855 179.261C162.977 179.141 163.074 178.997 163.141 178.838C163.209 178.678 163.245 178.506 163.248 178.332C163.25 178.157 163.22 177.984 163.157 177.823C163.095 177.661 163.002 177.514 162.884 177.39C162.767 177.266 162.627 177.168 162.472 177.101C162.317 177.034 162.152 177 161.984 177.001H102.729V177.001Z" fill="#E6E6E6"/>
<path d="M102.729 184.853C102.396 184.853 102.076 184.991 101.841 185.236C101.605 185.482 101.473 185.814 101.473 186.162C101.473 186.509 101.605 186.841 101.841 187.087C102.076 187.332 102.396 187.47 102.729 187.47H161.943C162.11 187.477 162.277 187.449 162.434 187.387C162.59 187.326 162.734 187.233 162.855 187.113C162.977 186.993 163.074 186.849 163.141 186.689C163.209 186.53 163.245 186.358 163.248 186.184C163.25 186.009 163.22 185.836 163.157 185.674C163.095 185.513 163.002 185.366 162.884 185.242C162.767 185.118 162.627 185.02 162.472 184.953C162.317 184.886 162.152 184.852 161.984 184.853H102.729V184.853Z" fill="#E6E6E6"/>
<path d="M169.66 238.504H72.7628C72.2871 238.503 71.831 238.306 71.4946 237.956C71.1582 237.605 70.969 237.13 70.9685 236.635V211.592C70.9691 211.097 71.1584 210.622 71.4947 210.271C71.8311 209.921 72.2871 209.724 72.7628 209.723H169.66C170.135 209.724 170.591 209.921 170.928 210.271C171.264 210.622 171.453 211.097 171.454 211.592V236.635C171.453 237.131 171.264 237.606 170.928 237.956C170.591 238.306 170.135 238.503 169.66 238.504ZM72.7628 210.471C72.4773 210.471 72.2035 210.589 72.0017 210.799C71.7998 211.01 71.6863 211.295 71.686 211.592V236.635C71.6863 236.932 71.7998 237.218 72.0017 237.428C72.2035 237.638 72.4773 237.757 72.7628 237.757H169.66C169.945 237.757 170.219 237.638 170.421 237.428C170.623 237.218 170.736 236.932 170.736 236.635V211.592C170.736 211.295 170.623 211.01 170.421 210.799C170.219 210.589 169.945 210.471 169.66 210.471H72.7628Z" fill="#E6E6E6"/>
<path d="M85.3232 231.965C89.4853 231.965 92.8595 228.45 92.8595 224.113C92.8595 219.777 89.4853 216.261 85.3232 216.261C81.161 216.261 77.7868 219.777 77.7868 224.113C77.7868 228.45 81.161 231.965 85.3232 231.965Z" fill="#FF9D47"/>
<path d="M102.729 218.877C102.396 218.877 102.076 219.015 101.841 219.26C101.605 219.506 101.473 219.839 101.473 220.186C101.473 220.533 101.605 220.866 101.841 221.111C102.076 221.357 102.396 221.495 102.729 221.495H161.943C162.272 221.493 162.586 221.357 162.82 221.116C163.053 220.875 163.187 220.549 163.192 220.207C163.198 219.865 163.074 219.534 162.848 219.286C162.623 219.037 162.312 218.891 161.984 218.878H102.729V218.877Z" fill="#E6E6E6"/>
<path d="M102.729 226.73C102.396 226.73 102.076 226.868 101.841 227.114C101.605 227.359 101.473 227.692 101.473 228.039C101.473 228.386 101.605 228.719 101.841 228.965C102.076 229.21 102.396 229.348 102.729 229.348H161.943C162.272 229.346 162.586 229.21 162.82 228.969C163.053 228.729 163.187 228.402 163.192 228.06C163.198 227.718 163.074 227.387 162.848 227.139C162.623 226.891 162.312 226.744 161.984 226.731H102.729V226.73Z" fill="#E6E6E6"/>
<path d="M169.66 280.381H72.7628C72.2871 280.381 71.831 280.184 71.4946 279.833C71.1582 279.483 70.969 279.007 70.9685 278.512V253.47C70.9691 252.974 71.1584 252.499 71.4947 252.148C71.8311 251.798 72.2871 251.601 72.7628 251.6H169.66C170.135 251.601 170.591 251.798 170.928 252.148C171.264 252.499 171.453 252.974 171.454 253.47V278.512C171.453 279.008 171.264 279.483 170.928 279.833C170.591 280.184 170.135 280.381 169.66 280.382V280.381ZM72.7628 252.348C72.4773 252.348 72.2035 252.466 72.0017 252.677C71.7998 252.887 71.6863 253.172 71.686 253.47V278.512C71.6863 278.81 71.7998 279.095 72.0017 279.305C72.2035 279.516 72.4773 279.634 72.7628 279.634H169.66C169.945 279.634 170.219 279.516 170.421 279.305C170.623 279.095 170.736 278.81 170.736 278.512V253.47C170.736 253.172 170.623 252.887 170.421 252.677C170.219 252.466 169.945 252.348 169.66 252.348H72.7628Z" fill="#E6E6E6"/>
<path d="M85.3232 273.843C89.4853 273.843 92.8595 270.327 92.8595 265.991C92.8595 261.654 89.4853 258.139 85.3232 258.139C81.161 258.139 77.7868 261.654 77.7868 265.991C77.7868 270.327 81.161 273.843 85.3232 273.843Z" fill="#FF9D47"/>
<path d="M102.729 260.756C102.396 260.756 102.076 260.894 101.841 261.139C101.605 261.385 101.473 261.717 101.473 262.065C101.473 262.412 101.605 262.745 101.841 262.99C102.076 263.235 102.396 263.373 102.729 263.373H161.943C162.11 263.38 162.277 263.352 162.434 263.29C162.59 263.229 162.734 263.136 162.855 263.016C162.977 262.896 163.074 262.752 163.141 262.593C163.209 262.433 163.245 262.261 163.248 262.087C163.25 261.912 163.22 261.739 163.157 261.578C163.095 261.416 163.002 261.269 162.884 261.145C162.767 261.021 162.627 260.923 162.472 260.856C162.317 260.789 162.152 260.755 161.984 260.756H102.729V260.756Z" fill="#E6E6E6"/>
<path d="M102.729 268.608C102.396 268.608 102.076 268.746 101.841 268.991C101.605 269.236 101.473 269.569 101.473 269.916C101.473 270.264 101.605 270.596 101.841 270.842C102.076 271.087 102.396 271.225 102.729 271.225H161.943C162.11 271.232 162.277 271.204 162.434 271.142C162.59 271.081 162.734 270.988 162.855 270.868C162.977 270.748 163.074 270.604 163.141 270.444C163.209 270.285 163.245 270.113 163.248 269.938C163.25 269.764 163.22 269.591 163.157 269.429C163.095 269.268 163.002 269.12 162.884 268.996C162.767 268.873 162.627 268.774 162.472 268.708C162.317 268.641 162.152 268.607 161.984 268.608H102.729V268.608Z" fill="#E6E6E6"/>
<path d="M247.625 343.433H241.753L238.961 319.84H247.625L247.625 343.433Z" fill="#FEB8B8"/>
<path d="M249.122 349.362H230.192V349.112C230.192 347.076 230.968 345.124 232.35 343.684C233.732 342.245 235.606 341.436 237.56 341.435H249.122L249.122 349.362Z" fill="#F3F3F3"/>
<path d="M320.556 339.427L314.84 340.829L306.931 318.53L315.364 316.461L320.556 339.427Z" fill="#FEB8B8"/>
<path d="M323.318 344.841L304.892 349.36L304.838 349.117C304.616 348.136 304.581 347.119 304.737 346.123C304.892 345.128 305.234 344.175 305.743 343.317C306.252 342.46 306.919 341.715 307.704 341.126C308.489 340.537 309.378 340.114 310.32 339.883L321.574 337.122L323.318 344.841Z" fill="#F3F3F3"/>
<path d="M246.425 243.922C246.437 242.694 246.786 213.677 254.42 202.706L254.533 202.544L281.136 206.368L280.541 212.459C281.711 213.645 290.915 223.666 293.573 247.395L321.812 326.409L308.685 327.652L269.824 241.397L249.26 335.155H236.249L246.425 243.922Z" fill="#F3F3F3"/>
<path d="M251.303 203.777L253.904 189.552C253.394 188.87 251.139 185.591 251.641 181.748C251.968 179.24 253.405 177.041 255.911 175.211L262.653 158.824L262.744 158.768C263.198 158.49 273.93 152.024 279.781 158.124C279.927 158.242 294.333 170.158 288.55 186.229L281.408 208.553L251.303 203.777Z" fill="#FF6584"/>
<path d="M242.255 223.021C242.957 222.938 243.632 222.695 244.233 222.31C244.835 221.925 245.348 221.408 245.737 220.794C246.125 220.18 246.38 219.485 246.483 218.758C246.586 218.031 246.535 217.288 246.333 216.584L260.253 206.135L251.92 202.833L239.979 213.262C238.868 213.696 237.949 214.54 237.394 215.632C236.84 216.725 236.688 217.991 236.968 219.192C237.249 220.393 237.941 221.446 238.915 222.151C239.889 222.857 241.077 223.166 242.255 223.022V223.021Z" fill="#FEB8B8"/>
<path d="M244.814 206.118L266.065 188.673L259.748 166.184C259.45 165.119 259.366 164.001 259.501 162.901C259.636 161.801 259.986 160.741 260.531 159.789C261.035 158.89 261.714 158.112 262.524 157.503C263.334 156.894 264.257 156.468 265.234 156.252C268.873 155.45 272.175 157.572 275.048 162.561L275.07 162.606C275.546 163.817 286.617 192.33 278.164 198.428C269.894 204.393 250.719 213.076 250.526 213.164L250.301 213.265L244.814 206.118Z" fill="#FF6584"/>
<path d="M273.058 152.194C280.168 152.194 285.932 146.189 285.932 138.781C285.932 131.373 280.168 125.368 273.058 125.368C265.948 125.368 260.184 131.373 260.184 138.781C260.184 146.189 265.948 152.194 273.058 152.194Z" fill="#FEB8B8"/>
<path d="M293.24 133.992C299.53 133.992 304.629 128.679 304.629 122.126C304.629 115.573 299.53 110.26 293.24 110.26C286.95 110.26 281.852 115.573 281.852 122.126C281.852 128.679 286.95 133.992 293.24 133.992Z" fill="#7C5C5C"/>
<path d="M303.063 131.952C301.589 133.061 299.882 133.787 298.083 134.068C296.285 134.349 294.449 134.177 292.727 133.567C291.005 132.957 289.449 131.927 288.188 130.562C286.927 129.197 285.998 127.537 285.479 125.722C285.675 127.349 286.193 128.917 287 130.326C287.807 131.735 288.886 132.954 290.168 133.907C291.45 134.859 292.908 135.524 294.449 135.86C295.991 136.196 297.582 136.195 299.123 135.857C300.664 135.52 302.121 134.853 303.403 133.899C304.684 132.945 305.761 131.725 306.567 130.315C307.372 128.905 307.889 127.337 308.083 125.708C308.277 124.08 308.145 122.428 307.696 120.855C307.95 122.968 307.655 125.113 306.84 127.065C306.025 129.018 304.72 130.706 303.063 131.952Z" fill="#7C5C5C"/>
<path d="M258.118 131.964C260.106 128.256 260.867 126.708 263.43 124.449C265.697 122.454 268.486 121.869 270.735 123.758C273.471 122.514 276.524 122.246 279.421 122.995C282.318 123.745 284.896 125.47 286.755 127.903C288.614 130.336 289.65 133.34 289.702 136.45C289.753 139.559 288.818 142.599 287.041 145.098C285.264 147.596 282.744 149.414 279.874 150.267C277.004 151.12 273.943 150.962 271.168 149.817C268.393 148.672 266.058 146.605 264.527 143.935C262.996 141.266 262.354 138.144 262.7 135.055C260.745 134.771 260.073 132.252 258.118 131.964Z" fill="#7C5C5C"/>
<path d="M349.086 350H0.913631C0.408726 350 0 349.77 0 349.487C0 349.203 0.409198 348.973 0.913631 348.973H349.086C349.59 348.973 349.999 349.203 349.999 349.487C349.999 349.77 349.591 350 349.086 350Z" fill="#333333"/>
</g>
<defs>
<clipPath id="clip0">
<rect width="350" height="350" fill="white"/>
</clipPath>
</defs>
</svg>
