<svg width="480" height="420" viewBox="0 0 480 420" fill="none" xmlns="http://www.w3.org/2000/svg">
<g clip-path="url(#clip0)">
<path d="M276.61 20.4415C280.727 30.5976 272.003 33.4743 262.009 38.9178C252.015 44.3613 244.536 50.3103 240.419 40.1543C236.302 29.9982 232.961 9.84024 247.099 2.13942C261.725 -5.82669 272.493 10.2854 276.61 20.4415Z" fill="#2F2E41"/>
<path d="M256.22 40.4145C263.65 40.4145 269.674 33.4324 269.674 24.8195C269.674 16.2067 263.65 9.22456 256.22 9.22456C248.789 9.22456 242.766 16.2067 242.766 24.8195C242.766 33.4324 248.789 40.4145 256.22 40.4145Z" fill="#FFB8B8"/>
<path d="M322.873 93.9799C322.407 93.2751 321.942 92.583 321.471 91.91C320.863 91.0338 320.251 90.1851 319.636 89.3639C312.663 80.0365 305.246 74.1633 297.078 73.5347H297.068L296.947 73.522L280.672 91.91L275.14 98.1579L275.261 98.5007L278.246 107.117H330.553C328.196 102.583 325.632 98.1978 322.873 93.9799Z" fill="#2F2E41"/>
<path d="M241.59 31.098L246.406 28.4748L245.735 20.4215L248.955 27.0861L251.257 25.8323L250.866 21.1345L252.744 25.0222L269.848 15.7058C268.242 11.7432 265.343 8.68254 261.79 7.19721C258.237 5.71188 254.32 5.92353 250.901 7.78561L248.423 9.13581C245.004 10.9979 242.363 14.3579 241.082 18.4766C239.801 22.5953 239.983 27.1354 241.59 31.098Z" fill="#2F2E41"/>
<path d="M353.055 314.172H72.1352C69.7389 314.169 67.4416 313.064 65.7471 311.1C64.0527 309.136 63.0996 306.473 63.0969 303.695V108.034C63.0989 105.999 63.7971 104.048 65.0384 102.609C66.2798 101.17 67.9628 100.361 69.7183 100.358H355.358C357.144 100.361 358.856 101.184 360.119 102.648C361.382 104.112 362.092 106.096 362.094 108.167V303.695C362.091 306.473 361.138 309.136 359.444 311.1C357.749 313.064 355.452 314.169 353.055 314.172Z" fill="#F2F2F2"/>
<path d="M80.8996 303.695H344.291C346.616 303.695 348.845 302.625 350.488 300.72C352.132 298.814 353.055 296.23 353.055 293.536V127.467C353.055 124.773 352.132 122.189 350.488 120.283C348.845 118.378 346.616 117.308 344.291 117.308H80.8996C78.5751 117.308 76.3459 118.378 74.7022 120.283C73.0586 122.189 72.1352 124.773 72.1352 127.467V293.536C72.1352 296.23 73.0586 298.814 74.7022 300.72C76.3459 302.625 78.5751 303.695 80.8996 303.695Z" fill="white"/>
<path d="M361.968 107.435H62.9701V102.101C62.9735 99.314 63.9305 96.6425 65.6311 94.6725C67.3317 92.7025 69.637 91.5949 72.0412 91.5926H352.897C355.301 91.5949 357.606 92.7025 359.307 94.6725C361.007 96.6425 361.964 99.314 361.968 102.101V107.435Z" fill="#FF9D47"/>
<path d="M79.4555 102.249C80.7514 102.249 81.8019 101.031 81.8019 99.5294C81.8019 98.0273 80.7514 96.8096 79.4555 96.8096C78.1597 96.8096 77.1092 98.0273 77.1092 99.5294C77.1092 101.031 78.1597 102.249 79.4555 102.249Z" fill="white"/>
<path d="M88.3617 102.249C89.6576 102.249 90.7081 101.031 90.7081 99.5294C90.7081 98.0273 89.6576 96.8096 88.3617 96.8096C87.0659 96.8096 86.0154 98.0273 86.0154 99.5294C86.0154 101.031 87.0659 102.249 88.3617 102.249Z" fill="white"/>
<path d="M97.2679 102.249C98.5637 102.249 99.6143 101.031 99.6143 99.5294C99.6143 98.0273 98.5637 96.8096 97.2679 96.8096C95.972 96.8096 94.9215 98.0273 94.9215 99.5294C94.9215 101.031 95.972 102.249 97.2679 102.249Z" fill="white"/>
<path d="M220.814 267.68H197.26C195.88 267.679 194.557 267.043 193.582 265.912C192.606 264.781 192.057 263.248 192.056 261.648V234.346C192.057 232.746 192.606 231.213 193.582 230.082C194.557 228.951 195.88 228.315 197.26 228.314H220.814C222.194 228.315 223.516 228.951 224.492 230.082C225.467 231.213 226.016 232.746 226.018 234.346V261.648C226.016 263.248 225.467 264.781 224.492 265.912C223.516 267.043 222.194 267.679 220.814 267.68ZM197.26 229.583C196.17 229.585 195.126 230.087 194.356 230.98C193.586 231.873 193.152 233.083 193.151 234.346V261.648C193.152 262.911 193.586 264.121 194.356 265.014C195.126 265.907 196.17 266.409 197.26 266.411H220.814C221.903 266.409 222.947 265.907 223.718 265.014C224.488 264.121 224.921 262.911 224.922 261.648V234.346C224.921 233.083 224.488 231.873 223.718 230.98C222.947 230.087 221.903 229.585 220.814 229.583H197.26Z" fill="#CCCCCC"/>
<path d="M216.158 260.061H201.916C201.48 260.06 201.062 259.86 200.754 259.502C200.446 259.145 200.273 258.661 200.272 258.156V237.838C200.273 237.333 200.446 236.849 200.754 236.491C201.062 236.134 201.48 235.933 201.916 235.933H212.235C212.61 235.933 212.973 236.081 213.265 236.353L217.187 240.006C217.379 240.184 217.534 240.41 217.64 240.667C217.747 240.925 217.802 241.206 217.801 241.491V258.156C217.801 258.661 217.627 259.145 217.319 259.502C217.011 259.86 216.593 260.06 216.158 260.061ZM201.916 237.203C201.77 237.203 201.631 237.27 201.528 237.389C201.426 237.508 201.368 237.669 201.368 237.838V258.156C201.368 258.324 201.426 258.486 201.528 258.605C201.631 258.724 201.77 258.791 201.916 258.791H216.158C216.303 258.791 216.442 258.724 216.545 258.605C216.648 258.486 216.705 258.324 216.706 258.156V241.491C216.706 241.396 216.687 241.302 216.652 241.217C216.617 241.131 216.565 241.056 216.501 240.996L212.578 237.343C212.481 237.252 212.36 237.203 212.235 237.203H201.916Z" fill="#CCCCCC"/>
<path d="M213.419 244.822H204.654C204.509 244.822 204.37 244.755 204.267 244.636C204.164 244.517 204.107 244.356 204.107 244.187C204.107 244.019 204.164 243.857 204.267 243.738C204.37 243.619 204.509 243.552 204.654 243.552H213.419C213.564 243.552 213.703 243.619 213.806 243.738C213.909 243.857 213.967 244.019 213.967 244.187C213.967 244.356 213.909 244.517 213.806 244.636C213.703 244.755 213.564 244.822 213.419 244.822Z" fill="#CCCCCC"/>
<path d="M213.419 248.632H204.654C204.509 248.632 204.37 248.565 204.267 248.446C204.164 248.327 204.107 248.165 204.107 247.997C204.107 247.829 204.164 247.667 204.267 247.548C204.37 247.429 204.509 247.362 204.654 247.362H213.419C213.564 247.362 213.703 247.429 213.806 247.548C213.909 247.667 213.967 247.829 213.967 247.997C213.967 248.165 213.909 248.327 213.806 248.446C213.703 248.565 213.564 248.632 213.419 248.632Z" fill="#CCCCCC"/>
<path d="M213.419 252.442H204.654C204.509 252.442 204.37 252.375 204.267 252.256C204.164 252.136 204.107 251.975 204.107 251.807C204.107 251.638 204.164 251.477 204.267 251.358C204.37 251.239 204.509 251.172 204.654 251.172H213.419C213.564 251.172 213.703 251.239 213.806 251.358C213.909 251.477 213.967 251.638 213.967 251.807C213.967 251.975 213.909 252.136 213.806 252.256C213.703 252.375 213.564 252.442 213.419 252.442Z" fill="#CCCCCC"/>
<path d="M276.687 267.68H253.133C251.753 267.679 250.43 267.043 249.455 265.912C248.479 264.781 247.93 263.248 247.929 261.648V234.346C247.93 232.746 248.479 231.213 249.455 230.082C250.43 228.951 251.753 228.315 253.133 228.314H276.687C278.067 228.315 279.389 228.951 280.365 230.082C281.34 231.213 281.889 232.746 281.891 234.346V261.648C281.889 263.248 281.34 264.781 280.365 265.912C279.389 267.043 278.067 267.679 276.687 267.68ZM253.133 229.583C252.043 229.585 250.999 230.087 250.229 230.98C249.459 231.873 249.026 233.083 249.024 234.346V261.648C249.026 262.911 249.459 264.121 250.229 265.014C250.999 265.907 252.043 266.409 253.133 266.411H276.687C277.776 266.409 278.82 265.907 279.591 265.014C280.361 264.121 280.794 262.911 280.795 261.648V234.346C280.794 233.083 280.361 231.873 279.591 230.98C278.82 230.087 277.776 229.585 276.687 229.583H253.133Z" fill="#CCCCCC"/>
<path d="M272.579 254.981H257.241C256.805 254.981 256.388 254.78 256.079 254.423C255.771 254.066 255.598 253.582 255.598 253.077V242.917C255.598 242.412 255.771 241.928 256.079 241.571C256.388 241.214 256.805 241.013 257.241 241.013H272.579C273.014 241.013 273.432 241.214 273.74 241.571C274.048 241.928 274.221 242.412 274.222 242.917V253.077C274.221 253.582 274.048 254.066 273.74 254.423C273.432 254.78 273.014 254.981 272.579 254.981ZM257.241 242.282C257.096 242.283 256.956 242.35 256.854 242.469C256.751 242.588 256.693 242.749 256.693 242.917V253.077C256.693 253.245 256.751 253.406 256.854 253.525C256.956 253.644 257.096 253.711 257.241 253.711H272.579C272.724 253.711 272.863 253.644 272.966 253.525C273.069 253.406 273.126 253.245 273.126 253.077V242.917C273.126 242.749 273.069 242.588 272.966 242.469C272.863 242.35 272.724 242.283 272.579 242.282H257.241Z" fill="#CCCCCC"/>
<path d="M264.91 249.672C264.602 249.672 264.3 249.573 264.039 249.385L255.855 243.456C255.732 243.366 255.645 243.224 255.612 243.06C255.58 242.896 255.605 242.724 255.682 242.581C255.759 242.439 255.881 242.337 256.023 242.299C256.164 242.261 256.313 242.29 256.436 242.379L264.62 248.308C264.707 248.37 264.808 248.403 264.91 248.403C265.013 248.403 265.113 248.37 265.2 248.308L273.384 242.379C273.507 242.29 273.656 242.261 273.797 242.299C273.938 242.337 274.061 242.439 274.138 242.581C274.215 242.724 274.24 242.896 274.207 243.06C274.175 243.224 274.088 243.366 273.965 243.456L265.781 249.385C265.52 249.573 265.218 249.673 264.91 249.672Z" fill="#CCCCCC"/>
<path d="M164.941 267.68H141.386C140.007 267.679 138.684 267.043 137.708 265.912C136.733 264.781 136.184 263.248 136.183 261.648V234.346C136.184 232.746 136.733 231.213 137.708 230.082C138.684 228.951 140.007 228.315 141.386 228.314H164.941C166.32 228.315 167.643 228.951 168.619 230.082C169.594 231.213 170.143 232.746 170.145 234.346V261.648C170.143 263.248 169.594 264.781 168.619 265.912C167.643 267.043 166.32 267.679 164.941 267.68ZM141.386 229.583C140.297 229.585 139.253 230.087 138.483 230.98C137.713 231.873 137.279 233.083 137.278 234.346V261.648C137.279 262.911 137.713 264.121 138.483 265.014C139.253 265.907 140.297 266.409 141.386 266.411H164.941C166.03 266.409 167.074 265.907 167.844 265.014C168.615 264.121 169.048 262.911 169.049 261.648V234.346C169.048 233.083 168.615 231.873 167.844 230.98C167.074 230.087 166.03 229.585 164.941 229.583H141.386Z" fill="#CCCCCC"/>
<path d="M160.832 254.981H145.495C145.059 254.981 144.641 254.78 144.333 254.423C144.025 254.066 143.852 253.582 143.851 253.077V242.917C143.852 242.412 144.025 241.928 144.333 241.571C144.641 241.214 145.059 241.013 145.495 241.013H160.832C161.268 241.013 161.686 241.214 161.994 241.571C162.302 241.928 162.475 242.412 162.476 242.917V253.077C162.475 253.582 162.302 254.066 161.994 254.423C161.686 254.78 161.268 254.981 160.832 254.981ZM145.495 242.282C145.35 242.283 145.21 242.35 145.108 242.469C145.005 242.588 144.947 242.749 144.947 242.917V253.077C144.947 253.245 145.005 253.406 145.108 253.525C145.21 253.644 145.35 253.711 145.495 253.711H160.832C160.978 253.711 161.117 253.644 161.22 253.525C161.322 253.406 161.38 253.245 161.38 253.077V242.917C161.38 242.749 161.322 242.588 161.22 242.469C161.117 242.35 160.978 242.283 160.832 242.282H145.495Z" fill="#CCCCCC"/>
<path d="M158.401 254.981H147.378C147.186 254.981 146.997 254.923 146.83 254.811C146.664 254.7 146.525 254.54 146.429 254.347C146.333 254.153 146.282 253.934 146.282 253.711C146.282 253.489 146.333 253.27 146.429 253.077L149.75 246.41C149.846 246.216 149.984 246.056 150.151 245.945C150.317 245.833 150.506 245.775 150.698 245.775C150.891 245.775 151.08 245.833 151.246 245.945C151.413 246.056 151.551 246.216 151.647 246.41L153.792 250.715L155.034 248.221C155.13 248.028 155.269 247.867 155.435 247.756C155.602 247.644 155.791 247.586 155.983 247.586C156.175 247.586 156.364 247.644 156.531 247.756C156.697 247.867 156.836 248.028 156.932 248.221L159.35 253.077C159.447 253.27 159.497 253.489 159.497 253.712C159.497 253.934 159.446 254.153 159.35 254.347C159.254 254.54 159.116 254.7 158.949 254.811C158.783 254.923 158.594 254.981 158.401 254.981H158.401ZM158.401 253.711L155.983 248.856L154.266 252.303C154.218 252.399 154.149 252.479 154.066 252.535C153.983 252.591 153.888 252.62 153.792 252.62C153.696 252.62 153.601 252.591 153.518 252.535C153.435 252.479 153.365 252.399 153.317 252.303L150.699 247.044L147.378 253.711H158.401Z" fill="#CCCCCC"/>
<path d="M159.189 246.092C159.794 246.092 160.285 245.523 160.285 244.822C160.285 244.121 159.794 243.552 159.189 243.552C158.584 243.552 158.094 244.121 158.094 244.822C158.094 245.523 158.584 246.092 159.189 246.092Z" fill="#CCCCCC"/>
<path d="M421.143 411.541L414.428 411.54L411.233 381.515L421.144 381.515L421.143 411.541Z" fill="#FFB8B8"/>
<path d="M422.856 419.086L401.202 419.085V418.768C401.202 417.485 401.42 416.215 401.844 415.029C402.267 413.844 402.888 412.767 403.671 411.86C404.453 410.953 405.382 410.233 406.405 409.742C407.428 409.251 408.524 408.999 409.63 408.999H409.631L422.856 408.999L422.856 419.086Z" fill="#2F2E41"/>
<path d="M448.532 411.541L441.816 411.54L438.622 381.515L448.533 381.515L448.532 411.541Z" fill="#FFB8B8"/>
<path d="M450.245 419.086L428.591 419.085V418.768C428.591 417.485 428.809 416.215 429.232 415.029C429.656 413.844 430.277 412.767 431.059 411.86C431.842 410.953 432.771 410.233 433.794 409.742C434.816 409.251 435.912 408.999 437.019 408.999H437.02L450.245 408.999L450.245 419.086Z" fill="#2F2E41"/>
<path d="M446.519 398.525L440.299 396.331C439.836 396.168 439.424 395.851 439.115 395.418C438.807 394.985 438.615 394.456 438.565 393.898L432.766 330.196C432.762 330.119 432.732 330.047 432.684 329.994C432.635 329.941 432.571 329.912 432.504 329.912C432.438 329.904 432.371 329.927 432.319 329.976C432.267 330.024 432.233 330.095 432.225 330.172L422.512 391.888C422.453 392.262 422.33 392.619 422.15 392.938C421.971 393.257 421.738 393.531 421.466 393.743C421.194 393.956 420.887 394.104 420.565 394.178C420.243 394.252 419.911 394.25 419.59 394.174L411.641 392.275C411.058 392.134 410.538 391.754 410.178 391.204C409.818 390.654 409.64 389.973 409.679 389.284L415.587 288.129L455.65 283.118L449.697 395.965C449.658 396.69 449.383 397.372 448.927 397.87C448.47 398.369 447.867 398.647 447.24 398.649C446.996 398.649 446.753 398.607 446.519 398.525Z" fill="#2F2E41"/>
<path d="M446.481 200.039C453.911 200.039 459.935 193.057 459.935 184.444C459.935 175.831 453.911 168.849 446.481 168.849C439.05 168.849 433.027 175.831 433.027 184.444C433.027 193.057 439.05 200.039 446.481 200.039Z" fill="#FFB8B8"/>
<path d="M415.525 288.723L424.212 225.323C424.674 221.952 425.75 218.734 427.368 215.882C428.986 213.031 431.11 210.612 433.598 208.785C436.086 206.959 438.88 205.768 441.796 205.292C444.712 204.815 447.682 205.063 450.508 206.021C455.45 207.677 459.681 211.41 462.376 216.49C465.07 221.569 466.034 227.631 465.079 233.49L455.991 290.109L415.525 288.723Z" fill="#FF9D47"/>
<path d="M450.195 300.067C450.867 299.552 451.434 298.874 451.855 298.078C452.276 297.282 452.541 296.389 452.633 295.462C452.724 294.535 452.639 293.595 452.383 292.71C452.127 291.825 451.707 291.016 451.152 290.339L460.133 270.179L450.019 271.43L443.041 290.383C442.122 291.539 441.601 293.045 441.576 294.616C441.552 296.188 442.025 297.715 442.907 298.908C443.789 300.102 445.018 300.879 446.361 301.093C447.704 301.306 449.069 300.941 450.195 300.067V300.067Z" fill="#FFB8B8"/>
<path d="M452.118 286.783C451.621 286.702 451.158 286.447 450.789 286.053L447.353 282.372C446.982 281.973 446.725 281.451 446.618 280.877C446.511 280.303 446.559 279.704 446.755 279.163L453.622 260.293L452.648 223.01C452.788 221.811 453.131 220.656 453.656 219.611C454.181 218.566 454.879 217.651 455.71 216.919C456.54 216.187 457.487 215.652 458.496 215.344C459.505 215.036 460.557 214.962 461.59 215.125C462.624 215.288 463.62 215.687 464.521 216.296C465.422 216.906 466.211 217.716 466.842 218.679C467.473 219.643 467.934 220.741 468.198 221.911C468.463 223.08 468.526 224.299 468.384 225.498L470.05 248.935C470.556 256.048 468.816 263.133 465.154 268.87L454.444 285.653C454.238 285.976 453.975 286.245 453.674 286.442C453.372 286.639 453.038 286.761 452.694 286.799C452.502 286.82 452.309 286.815 452.118 286.783Z" fill="#FF9D47"/>
<path d="M369.004 175.947C369.15 176.865 369.469 177.734 369.937 178.494C370.405 179.254 371.01 179.885 371.712 180.344C372.413 180.803 373.192 181.079 373.995 181.151C374.798 181.223 375.605 181.09 376.359 180.761L388.873 198.208L391.823 186.924L379.487 172.086C378.927 170.655 377.933 169.511 376.694 168.872C375.456 168.234 374.058 168.144 372.766 168.619C371.474 169.095 370.377 170.104 369.684 171.455C368.99 172.805 368.748 174.404 369.004 175.947Z" fill="#FFB8B8"/>
<path d="M378.807 183.179C379.065 182.68 379.448 182.285 379.906 182.045L384.169 179.812C384.631 179.572 385.146 179.502 385.644 179.611C386.142 179.721 386.598 180.005 386.952 180.425L399.265 195.113L429.264 208.61C430.162 209.226 430.946 210.042 431.572 211.01C432.198 211.978 432.652 213.08 432.911 214.252C433.169 215.424 433.225 216.644 433.076 217.841C432.927 219.038 432.576 220.19 432.043 221.23C431.51 222.27 430.806 223.178 429.97 223.902C429.134 224.626 428.183 225.152 427.171 225.449C426.16 225.747 425.108 225.811 424.075 225.637C423.042 225.463 422.049 225.055 421.152 224.436L401.884 217.076C396.035 214.843 391.085 210.224 387.955 204.078L378.798 186.102C378.622 185.756 378.511 185.371 378.472 184.973C378.432 184.574 378.466 184.17 378.57 183.787C378.628 183.574 378.708 183.37 378.807 183.179Z" fill="#FF9D47"/>
<path opacity="0.1" d="M457.394 238.519L456.846 258.837L446.755 279.163L455.18 256.512L457.394 238.519Z" fill="black"/>
<path d="M444.939 187.374C444.094 187.502 443.238 187.269 442.53 186.72C441.822 186.171 441.309 185.343 441.088 184.389C440.875 183.291 440.408 182.281 439.737 181.467C439.066 180.654 438.217 180.067 437.281 179.77C434.813 179.117 431.796 180.463 429.988 178.296C429.601 177.801 429.321 177.207 429.171 176.562C429.021 175.917 429.005 175.24 429.125 174.586C429.458 172.48 430.758 170.889 432.172 169.616C435.149 166.951 438.752 165.39 442.507 165.139C444.451 165.074 446.396 165.186 448.325 165.475C450.344 165.623 452.342 166.046 454.276 166.736C456.479 167.699 458.437 169.291 459.969 171.364C461.501 173.438 462.558 175.925 463.041 178.597C463.483 181.276 463.415 184.036 462.842 186.682C462.269 189.328 461.205 191.798 459.723 193.918C457.949 196.478 455.663 198.496 453.062 199.797C452.442 200.136 451.732 200.178 451.086 199.913C449.466 199.166 449.731 196.84 450.47 195.289C451.26 193.629 452.476 192.021 451.841 190.001C451.522 189.064 450.91 188.301 450.128 187.863C448.517 186.911 446.716 187.137 444.985 187.368L444.939 187.374Z" fill="#2F2E41"/>
<path d="M364.508 196.181H197.984C195.588 196.178 193.291 195.073 191.596 193.109C189.902 191.145 188.949 188.482 188.946 185.705V144.433C188.949 141.655 189.902 138.992 191.596 137.028C193.291 135.064 195.588 133.96 197.984 133.956H364.508C366.904 133.96 369.202 135.064 370.896 137.028C372.59 138.993 373.543 141.655 373.546 144.433V185.705C373.543 188.482 372.59 191.145 370.896 193.109C369.202 195.073 366.904 196.178 364.508 196.181Z" fill="white"/>
<path d="M364.508 196.499H197.984C195.515 196.496 193.148 195.357 191.403 193.334C189.657 191.31 188.675 188.566 188.672 185.705V144.433C188.675 141.571 189.657 138.828 191.403 136.804C193.148 134.78 195.515 133.642 197.984 133.639H364.508C366.977 133.642 369.344 134.78 371.089 136.804C372.835 138.828 373.817 141.571 373.82 144.433V185.705C373.817 188.566 372.835 191.31 371.089 193.334C369.344 195.357 366.977 196.496 364.508 196.499ZM197.984 134.909C195.806 134.912 193.717 135.916 192.177 137.702C190.636 139.487 189.77 141.908 189.768 144.433V185.705C189.77 188.23 190.636 190.651 192.177 192.436C193.717 194.222 195.806 195.226 197.984 195.229H364.508C366.686 195.226 368.775 194.222 370.315 192.436C371.856 190.651 372.722 188.23 372.724 185.705V144.433C372.722 141.908 371.856 139.487 370.315 137.702C368.775 135.916 366.686 134.912 364.508 134.909H197.984Z" fill="#3F3D56"/>
<path d="M344.24 186.022H218.252C215.856 186.019 213.558 184.914 211.864 182.95C210.169 180.986 209.216 178.323 209.214 175.546V153.957C209.216 151.18 210.169 148.517 211.864 146.553C213.558 144.589 215.856 143.484 218.252 143.481H344.24C346.636 143.484 348.934 144.589 350.628 146.553C352.323 148.517 353.276 151.18 353.278 153.957V175.546C353.276 178.323 352.323 180.986 350.628 182.95C348.934 184.914 346.636 186.019 344.24 186.022Z" fill="#F2F2F2"/>
<path d="M245.364 174.386C251.333 174.386 256.173 168.777 256.173 161.857C256.173 154.938 251.333 149.328 245.364 149.328C239.394 149.328 234.555 154.938 234.555 161.857C234.555 168.777 239.394 174.386 245.364 174.386Z" fill="#FF6584"/>
<path d="M336.411 184.758L321.154 169.926L306.16 155.35C305.765 154.965 305.265 154.755 304.748 154.756C304.232 154.757 303.732 154.969 303.338 155.356L288.393 169.999L284.742 173.576L279.238 168.225L262.511 151.963C262.115 151.579 261.615 151.368 261.098 151.369C260.582 151.371 260.083 151.583 259.688 151.969L243.015 168.306L226.079 184.899C225.994 184.983 225.932 185.096 225.904 185.221C225.875 185.347 225.88 185.48 225.919 185.603C225.958 185.725 226.028 185.83 226.12 185.905C226.212 185.979 226.322 186.019 226.434 186.019L261.156 185.941L272.146 185.917L272.039 186.022L304.8 185.949L336.06 185.879C336.172 185.879 336.282 185.839 336.374 185.764C336.466 185.689 336.536 185.583 336.574 185.461C336.612 185.338 336.617 185.205 336.588 185.079C336.559 184.954 336.497 184.841 336.411 184.758Z" fill="#3F3D56"/>
<path d="M479.452 420H374.279C374.134 420 373.995 419.933 373.892 419.814C373.789 419.695 373.732 419.533 373.732 419.365C373.732 419.197 373.789 419.035 373.892 418.916C373.995 418.797 374.134 418.73 374.279 418.73H479.452C479.598 418.73 479.737 418.797 479.84 418.916C479.942 419.035 480 419.197 480 419.365C480 419.533 479.942 419.695 479.84 419.814C479.737 419.933 479.598 420 479.452 420Z" fill="#CCCCCC"/>
<path d="M330.887 83.7573C330.449 82.9332 329.872 82.2211 329.189 81.6643C328.506 81.1076 327.733 80.7179 326.916 80.519C326.616 80.4461 326.312 80.4015 326.006 80.3857L284.271 37.1331C283.452 36.1564 282.358 35.5508 281.187 35.4251C280.957 35.3944 280.724 35.3859 280.492 35.3997C279.529 35.4505 278.599 35.8253 277.817 36.4784C277.035 37.1316 276.434 38.0347 276.088 39.0774C275.742 40.1201 275.665 41.2572 275.867 42.3497C276.07 43.4421 276.542 44.4426 277.227 45.2287L293.206 61.3754L319.444 87.8844C319.465 88.3837 319.53 88.8793 319.636 89.3639C319.95 90.7677 320.624 92.0277 321.57 92.9768C322.516 93.9259 323.689 94.5193 324.933 94.6784C326.067 94.8319 327.215 94.6119 328.247 94.0434C329.064 93.6001 329.789 92.9568 330.372 92.1576C330.432 92.0751 330.487 91.9989 330.542 91.91C331.308 90.753 331.751 89.3528 331.813 87.8961C331.875 86.4394 331.552 84.9956 330.887 83.7573H330.887Z" fill="#FFB8B8"/>
<path d="M259.501 125.442L259.112 107.117L258.783 91.91L258.559 81.2683L258.115 60.5246C258.027 59.414 257.662 58.357 257.065 57.4827C256.468 56.6084 255.664 55.9546 254.751 55.6011C253.839 55.2476 252.857 55.2097 251.926 55.4921C250.995 55.7744 250.156 56.3648 249.509 57.1911C249.357 57.3799 249.22 57.5839 249.099 57.8007C248.424 58.9203 248.121 60.2842 248.244 61.6421L249.219 91.91L249.707 107.117L250.331 126.515C250.151 126.8 249.988 127.099 249.844 127.41C249.454 128.266 249.219 129.205 249.152 130.17C249.085 131.135 249.188 132.106 249.455 133.023C249.733 133.985 250.184 134.868 250.778 135.613C251.372 136.358 252.095 136.949 252.901 137.347C253.706 137.745 254.575 137.94 255.45 137.92C256.325 137.901 257.187 137.666 257.978 137.233C258.897 136.729 259.695 135.97 260.301 135.024C260.908 134.078 261.304 132.974 261.454 131.808C261.605 130.643 261.505 129.452 261.165 128.342C260.824 127.231 260.253 126.235 259.501 125.442H259.501Z" fill="#FFB8B8"/>
<path d="M297.078 73.5347L293.206 61.3754L286.939 41.6793C286.487 40.2463 285.762 38.9496 284.819 37.8856C283.875 36.8216 282.737 36.0175 281.489 35.5331C281.39 35.495 281.286 35.4569 281.187 35.4251C279.978 34.9997 278.704 34.8827 277.452 35.0821C276.2 35.2816 275 35.7928 273.935 36.5807L252.829 52.0988C250.896 53.5167 249.514 55.7501 248.976 58.327C248.437 60.9039 248.784 63.6227 249.942 65.9089C252.582 71.1991 255.458 76.3259 258.559 81.2683C261.018 85.1478 265.598 85.5605 266.392 91.91H281.954L297.708 75.5157L297.078 73.5347Z" fill="#CCCCCC"/>
<path d="M55.4155 222.139C62.4256 222.139 68.1084 215.552 68.1084 207.426C68.1084 199.3 62.4256 192.713 55.4155 192.713C48.4054 192.713 42.7226 199.3 42.7226 207.426C42.7226 215.552 48.4054 222.139 55.4155 222.139Z" fill="#A0616A"/>
<path d="M86.5766 197.298C86.7017 197.414 86.8229 197.536 86.9403 197.665C87.5234 198.302 87.9839 199.074 88.2915 199.932C88.5992 200.789 88.747 201.712 88.7254 202.64C88.7039 203.568 88.5133 204.481 88.1663 205.318C87.8193 206.155 87.3237 206.897 86.7119 207.497C86.5692 207.635 86.4204 207.765 86.2661 207.886L87.1251 241.503C87.1496 242.604 86.8673 243.684 86.3201 244.584C85.7729 245.484 84.9901 246.155 84.0877 246.498L84.0354 246.511L60.4872 249.418C59.847 249.497 59.1996 249.428 58.5825 249.215C57.9654 249.003 57.3908 248.65 56.8918 248.179C56.3928 247.707 55.9793 247.126 55.6752 246.468C55.3711 245.81 55.1825 245.089 55.1202 244.346C55.0579 243.604 55.1232 242.854 55.3122 242.141C55.5013 241.427 55.8104 240.764 56.2217 240.19C56.633 239.616 57.1383 239.142 57.7085 238.796C58.2787 238.449 58.9025 238.237 59.5438 238.171L76.33 236.458L79.233 207.345C79.0431 207.15 78.8653 206.94 78.7008 206.716C77.7906 205.468 77.3133 203.871 77.3614 202.238C77.4095 200.604 77.9798 199.049 78.9613 197.875C79.9429 196.702 81.2658 195.993 82.6731 195.886C84.0803 195.779 85.4716 196.283 86.5766 197.298H86.5766Z" fill="#A0616A"/>
<path d="M76.3204 412.191H82.6566L85.6704 383.864H76.3193L76.3204 412.191Z" fill="#A0616A"/>
<path d="M74.7046 409.793L87.1818 409.793H87.1823C88.2265 409.793 89.2605 410.031 90.2253 410.494C91.19 410.957 92.0666 411.636 92.805 412.492C93.5433 413.348 94.129 414.364 94.5286 415.482C94.9282 416.601 95.1339 417.799 95.1339 419.01V419.309L74.705 419.31L74.7046 409.793Z" fill="#2F2E41"/>
<path d="M13.3471 402.037L18.7909 405.794L33.8837 383.242L25.849 377.697L13.3471 402.037Z" fill="#A0616A"/>
<path d="M13.0168 399.018L23.7376 406.418L23.738 406.418C24.6353 407.037 25.4185 407.855 26.0429 408.825C26.6674 409.795 27.1209 410.899 27.3776 412.072C27.6342 413.245 27.689 414.465 27.5388 415.663C27.3886 416.861 27.0363 418.013 26.502 419.053L26.3698 419.31L8.81664 407.196L13.0168 399.018Z" fill="#2F2E41"/>
<path d="M84.1514 402.186H77.0568C76.4823 402.187 75.9279 401.941 75.5008 401.496C75.0736 401.051 74.8041 400.438 74.7443 399.775L67.5919 321.844C67.5739 321.647 67.5007 321.464 67.3835 321.32C67.2664 321.177 67.1119 321.083 66.9439 321.052C66.7758 321.02 66.6036 321.054 66.4537 321.147C66.3038 321.241 66.1846 321.389 66.1145 321.569L53.2114 354.687L30.3672 397.865C30.0716 398.418 29.6138 398.83 29.0777 399.024C28.5417 399.218 27.9632 399.182 27.4482 398.922L18.3221 394.268C18.0204 394.114 17.7503 393.888 17.5298 393.604C17.3094 393.319 17.1435 392.984 17.0433 392.62C16.9431 392.256 16.9108 391.871 16.9486 391.492C16.9863 391.112 17.0933 390.746 17.2623 390.418L38.2624 349.659L44.703 315.318C42.6773 300.425 51.3612 278.284 51.4492 278.062L51.4923 277.954L75.4123 267.117L75.5322 267.287C84.9655 303.17 90.7138 341.786 86.4695 399.716C86.4171 400.388 86.1507 401.014 85.7221 401.47C85.2935 401.927 84.7335 402.182 84.1514 402.186Z" fill="#2F2E41"/>
<path d="M50.5286 281.582L50.4172 281.311C50.3639 281.181 45.0451 268.178 40.945 254.28C40.1571 251.593 39.8592 248.745 40.0703 245.917C40.2813 243.089 40.9968 240.342 42.1713 237.852C43.361 235.335 44.9887 233.133 46.9512 231.383C48.9137 229.634 51.1682 228.376 53.5719 227.69C57.7448 226.531 62.1382 227.147 65.9517 229.428C69.7651 231.709 72.7448 235.502 74.3478 240.116C77.6001 249.543 76.5636 259.605 75.5881 267.518L75.5687 267.677L75.4443 267.746L50.5286 281.582Z" fill="#3F3D56"/>
<path d="M70.8052 199.115H50.6505V188.931C55.0742 186.894 59.4031 185.162 62.0198 188.931C64.3498 188.931 66.5844 190.004 68.232 191.914C69.8796 193.824 70.8052 196.414 70.8052 199.115V199.115Z" fill="#2F2E41"/>
<path d="M49.5346 187.134C37.4857 187.134 34.1132 204.641 34.1132 214.517C34.1132 220.025 36.2621 221.995 39.6389 222.661L40.8315 215.289L43.6246 222.978C44.5731 222.984 45.5696 222.963 46.6027 222.94L47.5497 220.68L49.6615 222.9C58.1197 222.914 64.9558 224.344 64.9558 214.517C64.9558 204.641 61.9981 187.134 49.5346 187.134Z" fill="#2F2E41"/>
<path d="M105.721 420H0.547772C0.402492 420 0.263163 419.933 0.160435 419.814C0.0577076 419.695 -3.8147e-06 419.533 -3.8147e-06 419.365C-3.8147e-06 419.197 0.0577076 419.035 0.160435 418.916C0.263163 418.797 0.402492 418.73 0.547772 418.73H105.721C105.866 418.73 106.005 418.797 106.108 418.916C106.211 419.035 106.268 419.197 106.268 419.365C106.268 419.533 106.211 419.695 106.108 419.814C106.005 419.933 105.866 420 105.721 420Z" fill="#CCCCCC"/>
<path d="M107.698 211.103H84.1439C82.7642 211.101 81.4415 210.465 80.466 209.334C79.4904 208.203 78.9416 206.67 78.94 205.071V177.768C78.9416 176.169 79.4904 174.635 80.466 173.505C81.4415 172.374 82.7642 171.738 84.1439 171.736H107.698C109.078 171.738 110.401 172.374 111.376 173.505C112.352 174.635 112.901 176.169 112.902 177.768V205.071C112.901 206.67 112.352 208.203 111.376 209.334C110.401 210.465 109.078 211.101 107.698 211.103Z" fill="white"/>
<path d="M107.698 211.103H84.1439C82.7642 211.101 81.4415 210.465 80.466 209.334C79.4904 208.203 78.9416 206.67 78.94 205.071V177.768C78.9416 176.169 79.4904 174.635 80.466 173.505C81.4415 172.374 82.7642 171.738 84.1439 171.736H107.698C109.078 171.738 110.401 172.374 111.376 173.505C112.352 174.635 112.901 176.169 112.902 177.768V205.071C112.901 206.67 112.352 208.203 111.376 209.334C110.401 210.465 109.078 211.101 107.698 211.103ZM84.1439 173.006C83.0547 173.007 82.0104 173.509 81.2402 174.402C80.47 175.295 80.0368 176.505 80.0356 177.768V205.071C80.0368 206.333 80.47 207.544 81.2402 208.436C82.0104 209.329 83.0547 209.831 84.1439 209.833H107.698C108.787 209.831 109.832 209.329 110.602 208.436C111.372 207.544 111.805 206.333 111.807 205.071V177.768C111.805 176.505 111.372 175.295 110.602 174.402C109.832 173.509 108.787 173.007 107.698 173.006H84.1439Z" fill="#3F3D56"/>
<path d="M103.59 199.991H88.2522C87.8165 199.99 87.3988 199.79 87.0907 199.432C86.7826 199.075 86.6094 198.591 86.6089 198.086V184.752C86.6094 184.247 86.7826 183.763 87.0907 183.406C87.3988 183.049 87.8165 182.848 88.2522 182.848H92.5699C92.8508 182.846 93.1272 182.929 93.3723 183.088C93.6175 183.247 93.8232 183.476 93.9696 183.754L95.1738 186.022H103.59C104.026 186.023 104.443 186.224 104.751 186.581C105.059 186.938 105.233 187.422 105.233 187.927V198.086C105.233 198.591 105.059 199.075 104.751 199.432C104.443 199.79 104.026 199.99 103.59 199.991Z" fill="#FF9D47"/>
<path d="M103.091 206.727C103.168 206.89 103.238 207.057 103.303 207.229C103.628 208.078 103.793 208.997 103.79 209.926C103.787 210.854 103.614 211.771 103.283 212.617C102.953 213.463 102.472 214.218 101.872 214.833C101.272 215.449 100.566 215.91 99.8016 216.187C99.6237 216.251 99.4431 216.304 99.2604 216.346L88.7982 247.715C88.4523 248.74 87.8305 249.609 87.025 250.192C86.2194 250.775 85.2732 251.042 84.3266 250.953L84.274 250.941L61.5979 243.028C60.9814 242.813 60.4078 242.458 59.9101 241.985C59.4125 241.511 59.0007 240.928 58.6986 240.269C58.3965 239.61 58.2101 238.888 58.15 238.145C58.09 237.402 58.1575 236.652 58.3488 235.94C58.54 235.227 58.8512 234.565 59.2643 233.993C59.6774 233.421 60.1842 232.949 60.7555 232.604C61.3269 232.26 61.9514 232.051 62.5929 231.988C63.2345 231.925 63.8805 232.01 64.4935 232.239L80.538 238.209L92.9596 212.683C92.8498 212.418 92.7562 212.145 92.6795 211.865C92.2588 210.305 92.3532 208.619 92.9445 207.135C93.5358 205.651 94.5818 204.474 95.8793 203.834C97.1769 203.194 98.6334 203.135 99.9661 203.67C101.299 204.205 102.413 205.294 103.091 206.727H103.091Z" fill="#A0616A"/>
</g>
<defs>
<clipPath id="clip0">
<rect width="480" height="420" fill="white"/>
</clipPath>
</defs>
</svg>
